<svg width="101" height="101" viewBox="0 0 101 101" fill="none" xmlns="http://www.w3.org/2000/svg">
<path d="M77.9581 25.0415C72.8331 22.6665 67.3748 20.9165 61.6248 19.9165C60.9165 21.1665 60.0831 22.8748 59.5415 24.2498C53.4581 23.3332 47.4165 23.3332 41.4582 24.2498C40.8748 22.8748 40.0415 21.1665 39.3332 19.9165C33.5832 20.9165 28.1248 22.6665 22.9998 25.0415C12.6665 40.6248 9.87483 55.8333 11.2498 70.7916C18.1248 75.9166 24.7498 79 31.2915 81.0416C32.9165 78.8333 34.3332 76.4583 35.5832 74C33.2082 73.125 30.9582 72 28.8332 70.7083C29.4165 70.2916 29.9582 69.8333 30.4998 69.4166C43.5415 75.5 57.6665 75.5 70.5415 69.4166C71.0831 69.875 71.6248 70.2916 72.2081 70.7083C70.0831 72 67.7915 73.0833 65.4581 74C66.7081 76.4583 68.1248 78.8333 69.7498 81.0416C76.2915 79 82.9581 75.9166 89.7915 70.7916C91.4165 53.4166 86.9998 38.3748 78.0415 25.0415H77.9581ZM37.3332 61.625C33.4165 61.625 30.2082 58 30.2082 53.5416C30.2082 49.0833 33.3332 45.4583 37.3332 45.4583C41.3332 45.4583 44.4998 49.0833 44.4581 53.5416C44.4581 57.9583 41.3332 61.625 37.3332 61.625ZM63.6248 61.625C59.7081 61.625 56.4998 58 56.4998 53.5416C56.4998 49.0833 59.6248 45.4583 63.6248 45.4583C67.6248 45.4583 70.7915 49.0833 70.7498 53.5416C70.7498 57.9583 67.6248 61.625 63.6248 61.625Z" fill="black"/>
</svg>
