<svg width="101" height="101" viewBox="0 0 101 101" fill="none"
    xmlns="http://www.w3.org/2000/svg">
    <path d="M82.0226 20.953C76.134 18.1943 69.8624 16.1616 63.2557 15C62.4418 16.4519 61.4843 18.4363 60.862 20.0334C53.8722 18.9686 46.9304 18.9686 40.0844 20.0334C39.4141 18.4363 38.4566 16.4519 37.6427 15C31.036 16.1616 24.7644 18.1943 18.8758 20.953C7.00288 39.0538 3.79527 56.7192 5.37514 74.0941C13.2745 80.0471 20.8866 83.6285 28.4029 86C30.27 83.4349 31.8978 80.6762 33.334 77.8207C30.6051 76.8044 28.0199 75.4976 25.5783 73.9973C26.2485 73.5133 26.8709 72.9809 27.4933 72.497C42.478 79.5631 58.7076 79.5631 73.5009 72.497C74.1233 73.0293 74.7456 73.5133 75.4159 73.9973C72.9743 75.4976 70.3412 76.756 67.6602 77.8207C69.0964 80.6762 70.7242 83.4349 72.5913 86C80.1076 83.6285 87.7676 80.0471 95.6191 74.0941C97.4862 53.9121 92.4114 36.4403 82.1184 20.953H82.0226ZM35.3448 63.4465C30.8445 63.4465 27.1582 59.2359 27.1582 54.0573C27.1582 48.8787 30.7488 44.6681 35.3448 44.6681C39.9407 44.6681 43.5792 48.8787 43.5313 54.0573C43.5313 59.1875 39.9407 63.4465 35.3448 63.4465ZM65.5537 63.4465C61.0535 63.4465 57.3671 59.2359 57.3671 54.0573C57.3671 48.8787 60.9577 44.6681 65.5537 44.6681C70.1497 44.6681 73.7882 48.8787 73.7403 54.0573C73.7403 59.1875 70.1497 63.4465 65.5537 63.4465Z" fill="black"/>
</svg>
