<svg width="101" height="101" viewBox="0 0 101 101" fill="none" xmlns="http://www.w3.org/2000/svg">
<g clip-path="url(#clip0_53_4)">
<path d="M36.2477 19.7979C36.2477 19.1745 36.3343 17.8283 36.5075 15.7677C36.6936 13.7029 37.4728 11.5428 38.871 9.27451C40.2562 7.01487 42.5029 4.98465 45.6283 3.1882C48.7407 1.40039 53.2383 0.5 59.1082 0.5H75.6443V18.5209H63.5366C62.3375 18.5209 61.2207 18.9711 60.2121 19.8585C59.2121 20.7459 58.697 21.59 58.697 22.3735V33.5851H75.64C75.4625 35.7799 75.2677 37.914 75.0426 39.9745L74.3716 45.4201C74.1032 47.2599 73.8305 48.9654 73.5621 50.5368H58.5758V100.5H36.2477V50.5325H25.3564V33.5851H36.2477V19.7979Z" fill="black"/>
</g>
<defs>
<clipPath id="clip0_53_4">
<rect width="100" height="100" fill="white" transform="translate(0.5 0.5)"/>
</clipPath>
</defs>
</svg>
