<svg width="101" height="101" viewBox="0 0 101 101" fill="none" xmlns="http://www.w3.org/2000/svg">
<g clip-path="url(#clip0_53_36)">
<path d="M3.74728 96.1737H16.7474C18.541 96.1737 19.9947 94.7197 19.9947 92.9262V36.1028C19.9947 34.3091 18.541 32.8555 16.7474 32.8555H3.74728C1.95359 32.8555 0.5 34.3091 0.5 36.1028V92.9262C0.5 94.7195 1.95359 96.1737 3.74728 96.1737Z" fill="black"/>
<path d="M3.74728 22.865H16.7474C18.541 22.865 19.9947 21.4112 19.9947 19.6177V8.07345C19.9947 6.27994 18.541 4.82617 16.7474 4.82617H3.74728C1.95359 4.82617 0.5 6.27994 0.5 8.07345V19.6177C0.5 21.4112 1.95359 22.865 3.74728 22.865Z" fill="black"/>
<path d="M95.6088 39.4455C93.782 37.0409 91.0883 35.0634 87.5266 33.5134C83.9649 31.9645 80.0335 31.1895 75.732 31.1895C67 31.1895 59.6009 34.5219 53.5349 41.1882C52.3279 42.5146 51.4503 42.2246 51.4503 40.4309V36.102C51.4503 34.3083 49.9964 32.8547 48.2028 32.8547H36.5901C34.7964 32.8547 33.3428 34.3083 33.3428 36.102V92.9254C33.3428 94.7189 34.7965 96.1729 36.5901 96.1729H49.5902C51.3839 96.1729 52.8375 94.7189 52.8375 92.9254V73.1637C52.8375 64.931 53.3346 59.2879 54.3289 56.2355C55.3228 53.183 57.1619 50.7319 59.8444 48.8818C62.5272 47.0317 65.5564 46.1061 68.9332 46.1061C71.5694 46.1061 73.8244 46.7538 75.6978 48.0493C77.5711 49.3446 78.9241 51.1591 79.7567 53.4953C80.5896 55.8312 81.0057 60.9765 81.0057 68.9321V92.9252C81.0057 94.7188 82.4592 96.1727 84.2528 96.1727H97.2529C99.0464 96.1727 100.5 94.7188 100.5 92.9252V60.7451C100.5 55.0565 100.141 50.6854 99.4253 47.633C98.709 44.5806 97.4367 41.8514 95.6088 39.4455Z" fill="black"/>
</g>
<defs>
<clipPath id="clip0_53_36">
<rect width="100" height="100" fill="white" transform="translate(0.5 0.5)"/>
</clipPath>
</defs>
</svg>
