<svg width="101" height="101" viewBox="0 0 101 101" fill="none" xmlns="http://www.w3.org/2000/svg">
<path fill-rule="evenodd" clip-rule="evenodd" d="M25.4997 8.83301C16.2949 8.83301 8.83301 16.2949 8.83301 25.4997V75.4997C8.83301 84.7042 16.2949 92.1663 25.4997 92.1663H75.4997C84.7042 92.1663 92.1663 84.7042 92.1663 75.4997V25.4997C92.1663 16.2949 84.7042 8.83301 75.4997 8.83301H25.4997ZM17.1663 25.4997C17.1663 20.8973 20.8973 17.1663 25.4997 17.1663H75.4997C80.1022 17.1663 83.833 20.8973 83.833 25.4997V75.4997C83.833 80.1022 80.1022 83.833 75.4997 83.833H25.4997C20.8973 83.833 17.1663 80.1022 17.1663 75.4997V25.4997ZM37.9997 46.333C37.9997 44.0317 36.1342 42.1663 33.833 42.1663C31.5318 42.1663 29.6663 44.0317 29.6663 46.333V71.333C29.6663 73.6342 31.5318 75.4997 33.833 75.4997C36.1342 75.4997 37.9997 73.6342 37.9997 71.333V46.333ZM40.083 31.7497C40.083 35.2015 37.2848 37.9997 33.833 37.9997C30.3812 37.9997 27.583 35.2015 27.583 31.7497C27.583 28.2979 30.3812 25.4997 33.833 25.4997C37.2848 25.4997 40.083 28.2979 40.083 31.7497Z" fill="black"/>
<path d="M53.9176 43.9493C53.1642 42.8714 51.9142 42.1664 50.4997 42.1664C48.1984 42.1664 46.333 44.0351 46.333 46.3364V71.333C46.333 73.6343 48.1984 75.4997 50.4997 75.4997C52.8009 75.4997 54.6663 73.6339 54.6663 71.3326V54.5126C56.3222 51.6868 58.7326 50.4997 60.9163 50.4997C64.4188 50.4997 67.1663 53.8464 67.1663 57.0472V71.333C67.1663 73.6343 69.0317 75.4997 71.333 75.4997C73.6342 75.4997 75.4997 73.6326 75.4997 71.3314V57.0472C75.4997 50.1905 69.9138 42.1664 60.9163 42.1664C58.4313 42.1664 56.0534 42.7922 53.9176 43.9493Z" fill="black"/>
</svg>
