<svg width="101" height="101" viewBox="0 0 101 101" fill="none" xmlns="http://www.w3.org/2000/svg">
<path fill-rule="evenodd" clip-rule="evenodd" d="M46.2292 60.9582C46.6355 60.552 46.9578 60.0697 47.1777 59.5388C47.3976 59.008 47.5108 58.4391 47.5108 57.8645C47.5108 57.2899 47.3976 56.721 47.1777 56.1902C46.9578 55.6593 46.6355 55.177 46.2292 54.7707C45.0878 53.6294 44.1824 52.2743 43.5646 50.783C42.9469 49.2917 42.6289 47.6933 42.6289 46.0791C42.6289 44.4649 42.9469 42.8665 43.5646 41.3752C44.1824 39.8839 45.0878 38.5288 46.2292 37.3874L60.9626 22.6583C62.104 21.5169 63.459 20.6114 64.9503 19.9937C66.4417 19.376 68.0401 19.0581 69.6542 19.0581C71.2684 19.0581 72.8668 19.376 74.3581 19.9937C75.8495 20.6114 77.2045 21.5169 78.3459 22.6583C79.4873 23.7997 80.3927 25.1547 81.0105 26.646C81.6282 28.1374 81.9461 29.7357 81.9461 31.3499C81.9461 32.9641 81.6282 34.5625 81.0105 36.0538C80.3927 37.5451 79.4873 38.9002 78.3459 40.0416L73.7917 44.5916C73.3855 44.9979 73.0632 45.4802 72.8433 46.011C72.6234 46.5418 72.5103 47.1108 72.5103 47.6853C72.5103 48.2599 72.6234 48.8288 72.8433 49.3597C73.0632 49.8905 73.3855 50.3728 73.7917 50.7791C74.6123 51.5996 75.7251 52.0606 76.8855 52.0606C77.4601 52.0606 78.029 51.9474 78.5598 51.7275C79.0906 51.5076 79.573 51.1854 79.9793 50.7791L84.5334 46.2291C88.4796 42.2829 90.6966 36.9307 90.6966 31.3499C90.6966 25.7692 88.4796 20.417 84.5334 16.4708C80.5872 12.5246 75.235 10.3076 69.6542 10.3076C64.0735 10.3076 58.7213 12.5246 54.7751 16.4708L40.0417 31.1999C38.0877 33.1538 36.5377 35.4735 35.4801 38.0265C34.4226 40.5795 33.8783 43.3157 33.8783 46.0791C33.8783 48.8424 34.4226 51.5787 35.4801 54.1317C36.5377 56.6847 38.0877 59.0043 40.0417 60.9582C41.7501 62.6666 44.5209 62.6666 46.2292 60.9582ZM54.7709 40.0416C54.3646 40.4478 54.0423 40.9302 53.8224 41.461C53.6025 41.9918 53.4893 42.5608 53.4893 43.1353C53.4893 43.7099 53.6025 44.2788 53.8224 44.8097C54.0423 45.3405 54.3646 45.8228 54.7709 46.2291C55.9123 47.3705 56.8178 48.7255 57.4355 50.2168C58.0533 51.7082 58.3712 53.3065 58.3712 54.9207C58.3712 56.5349 58.0533 58.1333 57.4355 59.6247C56.8178 61.116 55.9123 62.471 54.7709 63.6124L40.1876 78.1957C39.0522 79.3639 37.6959 80.2947 36.1977 80.9341C34.6994 81.5735 33.0889 81.9087 31.46 81.9202C29.831 81.9317 28.216 81.6193 26.7088 81.0011C25.2016 80.3829 23.8324 79.4713 22.6806 78.3193C21.5289 77.1673 20.6176 75.7978 19.9998 74.2905C19.382 72.7832 19.07 71.1681 19.0818 69.5391C19.0937 67.9102 19.4293 66.2998 20.0691 64.8017C20.7088 63.3035 21.64 61.9475 22.8084 60.8124L27.0792 56.5416C27.8998 55.7211 28.3607 54.6082 28.3607 53.4478C28.3607 52.2875 27.8998 51.1746 27.0792 50.3541C26.2587 49.5336 25.1459 49.0726 23.9855 49.0726C22.8251 49.0726 21.7122 49.5336 20.8917 50.3541L16.6251 54.6249C12.6789 58.5711 10.4619 63.9233 10.4619 69.5041C10.4619 75.0848 12.6789 80.437 16.6251 84.3832C20.5713 88.3294 25.9235 90.5464 31.5042 90.5464C37.085 90.5464 42.4372 88.3294 46.3834 84.3832L60.9667 69.7999C62.9208 67.846 64.4708 65.5263 65.5283 62.9733C66.5859 60.4204 67.1302 57.6841 67.1302 54.9207C67.1302 52.1574 66.5859 49.4211 65.5283 46.8682C64.4708 44.3152 62.9208 41.9955 60.9667 40.0416C60.5605 39.6353 60.0782 39.313 59.5473 39.0931C59.0165 38.8732 58.4476 38.76 57.873 38.76C57.2984 38.76 56.7295 38.8732 56.1986 39.0931C55.6678 39.313 55.1855 39.6353 54.7792 40.0416H54.7709Z" fill="black"/>
</svg>
