<svg width="100" height="100" viewBox="0 0 100 100" fill="none"
    xmlns="http://www.w3.org/2000/svg">
    <path d="M32 10H14C11.7909 10 10 11.7909 10 14V86C10 88.2091 11.7909 90 14 90H32C34.2091 90 36 88.2091 36 86V14C36 11.7909 34.2091 10 32 10Z" fill="white" />
    <path d="M82.783 10H62.217C60.8378 10 59.556 10.7105 58.825 11.88L13.825 83.88C12.1599 86.5442 14.0752 90 17.217 90H37.783C39.1622 90 40.444 89.2895 41.175 88.12L86.175 16.12C87.8401 13.4558 85.9248 10 82.783 10Z" fill="white" />
    <path d="M86.175 83.88C87.8401 86.5442 85.9248 90 82.783 90H57.217C54.0752 90 52.1599 86.5442 53.825 83.88L66.608 63.4272C68.1747 60.9205 71.8253 60.9205 73.392 63.4272L86.175 83.88Z" fill="white" />
</svg>
