<svg width="100" height="100" viewBox="0 0 100 100" fill="none"
    xmlns="http://www.w3.org/2000/svg">
    <path fill-rule="evenodd" clip-rule="evenodd" d="M34.0481 65.9522C50.0725 81.9763 64.9175 83.7309 69.2746 83.8913C74.5433 84.0851 79.9175 79.7847 82.24 75.3776C78.5333 71.0272 73.705 67.653 68.4146 63.9947C65.2967 67.1126 61.4517 72.9055 56.3275 70.833C53.4179 69.6563 46.2254 66.3442 39.9407 60.0597C33.6558 53.7747 30.3439 46.5822 29.1672 43.673C27.093 38.5443 32.8989 34.6923 36.0191 31.572C32.3627 26.1942 29.0441 21.2425 24.7028 17.7218C20.2385 20.0572 15.9127 25.3905 16.109 30.7256C16.2694 35.0825 18.0239 49.928 34.0481 65.9522ZM68.9679 92.2188C62.9642 91.998 45.9612 89.6505 28.1556 71.8447C10.3498 54.0388 8.00228 37.036 7.78137 31.0321C7.4447 21.8843 14.4522 12.996 22.5506 9.52533C24.4508 8.71091 26.7524 8.85996 28.5719 10.1872C35.2704 15.0733 39.8919 22.4806 43.8608 28.2806C45.5517 30.7517 45.2725 34.1039 43.1258 36.2506L37.474 41.9022C38.7857 44.7993 41.4619 49.7955 45.8333 54.1667C50.2046 58.5384 55.2008 61.2142 58.0979 62.5263L63.7467 56.8772C65.8954 54.7288 69.2621 54.4455 71.7387 56.1613C77.6554 60.2605 84.6042 64.8168 89.6708 71.3055C91.0938 73.128 91.3054 75.5113 90.4567 77.4922C86.97 85.628 78.1467 92.5568 68.9679 92.2188Z" fill="white"/>
</svg>
