<svg width="100" height="100" viewBox="0 0 100 100" fill="none" xmlns="http://www.w3.org/2000/svg">
<g clip-path="url(#clip0_53_1723)">
<path d="M87.1143 18.0089C79.153 9.72886 68.0739 4.40699 55.7895 3.91089C52.7053 3.78628 50.1031 6.18589 49.9785 9.2689C49.8539 12.3531 52.2535 14.9552 55.3352 15.0814C64.6545 15.4609 73.0012 19.4722 79.0615 25.7613C85.1137 32.0572 88.8186 40.5591 88.8215 49.9822C88.8186 59.6464 84.9198 68.3437 78.5905 74.6841C72.2502 81.0148 63.5516 84.9123 53.8889 84.915C44.226 84.9121 35.5246 81.0146 29.1869 74.6841C22.8578 68.3437 18.9588 59.6466 18.9561 49.9822C18.9561 49.3019 18.9768 48.6271 19.0151 47.958L25.6735 51.2445C26.3965 51.6007 27.2364 51.6062 27.8903 51.2613C28.5469 50.9121 28.935 50.258 28.9184 49.5238L28.2617 20.2593C28.2395 19.4224 27.6992 18.6271 26.8762 18.2156C26.0477 17.8111 25.086 17.8623 24.4127 18.3597L0.782837 35.6347C0.187134 36.0685 -0.0956783 36.7736 0.0289311 37.5052C0.148072 38.2394 0.663501 38.9003 1.38948 39.258L8.36643 42.7011C7.98811 45.0773 7.77698 47.5062 7.77698 49.9822C7.77424 62.6974 12.9479 74.2615 21.2834 82.5884C29.6108 90.9228 41.1719 96.0962 53.8887 96.0937C66.6026 96.0964 78.1664 90.9228 86.4936 82.5886C94.8291 74.2615 100.003 62.6976 100 49.9824C100.003 37.5871 95.0867 26.2822 87.1143 18.0089Z" fill="black"/>
</g>
<defs>
<clipPath id="clip0_53_1723">
<rect width="100" height="100" fill="white"/>
</clipPath>
</defs>
</svg>
