<svg width="100" height="100" viewBox="0 0 100 100" fill="none"
    xmlns="http://www.w3.org/2000/svg">
    <path d="M84.8872 20.1561C77.4036 12.4318 66.9893 7.46713 55.442 7.00433C52.5429 6.88808 50.0969 9.12664 49.9797 12.0027C49.8626 14.8799 52.1182 17.3074 55.015 17.4251C63.7751 17.7791 71.621 21.5212 77.3177 27.3882C83.0067 33.2615 86.4893 41.1928 86.492 49.9834C86.4893 58.999 82.8244 67.1125 76.8749 73.0274C70.9151 78.9332 62.7384 82.569 53.6555 82.5716C44.5724 82.5689 36.3931 78.933 30.4357 73.0274C24.4863 67.1125 20.8212 58.9992 20.8187 49.9834C20.8187 49.3488 20.8381 48.7193 20.8741 48.095L27.133 51.161C27.8127 51.4933 28.6021 51.4984 29.2168 51.1767C29.834 50.8509 30.1988 50.2407 30.1832 49.5558L29.566 22.2555C29.5451 21.4747 29.0372 20.7328 28.2636 20.3489C27.4848 19.9716 26.5808 20.0193 25.9479 20.4834L3.73587 36.5989C3.17591 37.0036 2.91006 37.6613 3.0272 38.3439C3.13919 39.0288 3.62369 39.6454 4.30611 39.979L10.8644 43.191C10.5088 45.4077 10.3103 47.6736 10.3103 49.9834C10.3078 61.8452 15.171 72.6331 23.0064 80.4012C30.8341 88.1762 41.7015 93.0024 53.6553 93C65.6063 93.0026 76.4763 88.1762 84.3038 80.4014C92.1392 72.6331 97.0024 61.8454 97 49.9836C97.0024 38.4202 92.3813 27.8741 84.8872 20.1561Z" fill="white"/>
</svg>
