<svg width="100" height="100" viewBox="0 0 100 100" fill="none"
    xmlns="http://www.w3.org/2000/svg">
    <path d="M78.5337 0H21.4709C15.1344 0 10 5.09837 10 11.3854V88.6146C10 94.9016 15.1344 100 21.4709 100H78.5292C84.8657 100 90 94.9016 90 88.6146V11.3854C90.0046 5.09837 84.8634 0 78.5337 0ZM20.7505 38.3801C20.7505 35.7114 22.9322 33.5504 25.6164 33.5504H27.3187C25.504 31.5603 24.389 28.928 24.389 26.027C24.389 19.8265 29.4569 14.7987 35.7039 14.7987C41.9555 14.7987 47.0187 19.8242 47.0187 26.0292C47.0187 28.9257 45.9038 31.5603 44.0845 33.5504H45.711C48.3998 33.5504 50.577 35.7114 50.577 38.3801V46.5275C50.577 49.0823 48.5696 51.1499 46.046 51.323H25.2815C22.7579 51.1499 20.7505 49.0823 20.7505 46.5275V38.3801ZM74.6635 85.199H25.3388C22.8061 85.199 20.7505 83.1588 20.7505 80.6449C20.7505 78.131 22.8061 76.0907 25.3388 76.0907H74.6635C77.1962 76.0907 79.2518 78.131 79.2518 80.6449C79.2518 83.1588 77.1962 85.199 74.6635 85.199ZM74.6635 68.121H25.3388C22.8061 68.121 20.7505 66.0807 20.7505 63.5668C20.7505 61.0529 22.8061 59.0127 25.3388 59.0127H74.6635C77.1962 59.0127 79.2518 61.0529 79.2518 63.5668C79.2518 66.0807 77.1962 68.121 74.6635 68.121ZM74.6635 51.0429H59.7514C57.2186 51.0429 55.163 49.0026 55.163 46.4888C55.163 43.9749 57.2186 41.9346 59.7514 41.9346H74.6635C77.1962 41.9346 79.2518 43.9749 79.2518 46.4888C79.2518 49.0026 77.1962 51.0429 74.6635 51.0429Z" fill="black"/>
</svg>
