<svg width="214" height="214" viewBox="0 0 214 214" fill="none" xmlns="http://www.w3.org/2000/svg">
<circle cx="107" cy="107" r="107" fill="white"/>
<path d="M181.888 131.329C184.514 132.182 185.966 135.01 184.957 137.581C178.32 154.5 166.334 168.848 150.76 178.392C133.761 188.809 113.604 192.818 93.9128 189.699C74.2218 186.581 56.2898 176.538 43.3421 161.379C30.3944 146.219 23.2808 126.936 23.2808 107C23.2808 87.0636 30.3944 67.7813 43.342 52.6215C56.2897 37.4617 74.2218 27.4193 93.9128 24.3005C113.604 21.1818 133.761 25.1914 150.76 35.6081C166.334 45.1517 178.32 59.4996 184.957 76.4191C185.966 78.9898 184.514 81.8176 181.888 82.6709L143.619 95.1053C140.993 95.9586 138.205 94.4978 136.97 92.0276C134.184 86.4528 129.881 81.734 124.511 78.4432C117.711 74.2765 109.648 72.6727 101.772 73.9202C93.8954 75.1677 86.7225 79.1847 81.5435 85.2486C76.3644 91.3125 73.519 99.0254 73.519 107C73.519 114.975 76.3644 122.687 81.5435 128.751C86.7226 134.815 93.8954 138.832 101.772 140.08C109.648 141.327 117.711 139.723 124.511 135.557C129.881 132.266 134.184 127.547 136.97 121.972C138.205 119.502 140.993 118.041 143.619 118.895L181.888 131.329Z" fill="black"/>
<mask id="mask0_29_314" style="mask-type:alpha" maskUnits="userSpaceOnUse" x="23" y="23" width="163" height="168">
<path d="M181.888 131.329C184.514 132.182 185.966 135.01 184.957 137.581C178.32 154.5 166.334 168.848 150.76 178.392C133.761 188.809 113.604 192.818 93.9128 189.699C74.2218 186.581 56.2898 176.538 43.3421 161.379C30.3944 146.219 23.2808 126.936 23.2808 107C23.2808 87.0636 30.3944 67.7813 43.342 52.6215C56.2897 37.4617 74.2218 27.4193 93.9128 24.3005C113.604 21.1818 133.761 25.1914 150.76 35.6081C166.334 45.1517 178.32 59.4996 184.957 76.4191C185.966 78.9898 184.514 81.8176 181.888 82.6709L143.619 95.1053C140.993 95.9586 138.205 94.4978 136.97 92.0276C134.184 86.4528 129.881 81.734 124.511 78.4432C117.711 74.2765 109.648 72.6727 101.772 73.9202C93.8954 75.1677 86.7225 79.1847 81.5435 85.2486C76.3644 91.3125 73.519 99.0254 73.519 107C73.519 114.975 76.3644 122.687 81.5435 128.751C86.7226 134.815 93.8954 138.832 101.772 140.08C109.648 141.327 117.711 139.723 124.511 135.557C129.881 132.266 134.184 127.547 136.97 121.972C138.205 119.502 140.993 118.041 143.619 118.895L181.888 131.329Z" fill="#808080"/>
</mask>
<g mask="url(#mask0_29_314)">
<path d="M121.7 62.9315H146.08C148.841 62.9315 151.08 65.1701 151.08 67.9315V95.2485H121.7V62.9315Z" fill="#FF0000"/>
<path d="M92.3586 52.9822C92.3586 51.6015 93.4779 50.4822 94.8586 50.4822H119.164C120.545 50.4822 121.664 51.6015 121.664 52.9822V77.6945H92.3586V52.9822Z" fill="#FFA500"/>
<path d="M63.0522 68.0418C63.0522 65.2803 65.2908 63.0417 68.0522 63.0417H92.3579V92.3474H63.0522V68.0418Z" fill="#DFDF42"/>
<path d="M50.4934 94.8474C50.4934 93.4667 51.6127 92.3474 52.9934 92.3474H77.7058V121.653H52.9934C51.6127 121.653 50.4934 120.534 50.4934 119.153V94.8474Z" fill="#009700"/>
<path d="M63.0522 121.653H92.3579V150.958H68.0522C65.2908 150.958 63.0522 148.72 63.0522 145.958V121.653Z" fill="#5555E8"/>
<path d="M92.3586 136.306H121.664V161.018C121.664 162.399 120.545 163.518 119.164 163.518H94.8586C93.4779 163.518 92.3586 162.399 92.3586 161.018V136.306Z" fill="#6B00B9"/>
<path d="M121.663 117.466H150.969V145.958C150.969 148.72 148.73 150.958 145.969 150.958H121.663V117.466Z" fill="#CB4BCB"/>
</g>
</svg>
