<svg width="101" height="101" viewBox="0 0 101 101" fill="none"
    xmlns="http://www.w3.org/2000/svg">
    <path fill-rule="evenodd" clip-rule="evenodd" d="M23.2 5C13.1484 5 5 13.1484 5 23.2V77.8C5 87.8514 13.1484 96 23.2 96H77.8C87.8514 96 96 87.8514 96 77.8V23.2C96 13.1484 87.8514 5 77.8 5H23.2ZM14.1 23.2C14.1 18.1742 18.1742 14.1 23.2 14.1H77.8C82.8259 14.1 86.9 18.1742 86.9 23.2V77.8C86.9 82.8259 82.8259 86.9 77.8 86.9H23.2C18.1742 86.9 14.1 82.8259 14.1 77.8V23.2ZM36.85 45.95C36.85 43.437 34.8129 41.4 32.3 41.4C29.7871 41.4 27.75 43.437 27.75 45.95V73.25C27.75 75.763 29.7871 77.8 32.3 77.8C34.8129 77.8 36.85 75.763 36.85 73.25V45.95ZM39.125 30.025C39.125 33.7944 36.0694 36.85 32.3 36.85C28.5306 36.85 25.475 33.7944 25.475 30.025C25.475 26.2556 28.5306 23.2 32.3 23.2C36.0694 23.2 39.125 26.2556 39.125 30.025Z" fill="white"/>
    <path d="M54.2324 43.347C53.4097 42.1699 52.0447 41.4 50.5 41.4C47.987 41.4 45.95 43.4407 45.95 45.9537V73.25C45.95 75.763 47.987 77.8 50.5 77.8C53.013 77.8 55.05 75.7626 55.05 73.2496V54.8822C56.8582 51.7963 59.4903 50.5 61.875 50.5C65.6997 50.5 68.7 54.1546 68.7 57.6499V73.25C68.7 75.763 70.737 77.8 73.25 77.8C75.763 77.8 77.8 75.7612 77.8 73.2482V57.6499C77.8 50.1624 71.7003 41.4 61.875 41.4C59.1614 41.4 56.5647 42.0835 54.2324 43.347Z" fill="white"/>
</svg>
