<svg width="101" height="101" viewBox="0 0 101 101" fill="none"
    xmlns="http://www.w3.org/2000/svg">
    <path d="M5.9983 94H18.0017C19.6577 94 21 92.6222 21 90.9227V37.0771C21 35.3774 19.6577 34 18.0017 34H5.9983C4.34214 34 3 35.3774 3 37.0771V90.9227C3 92.6221 4.34214 94 5.9983 94Z" fill="black"/>
    <path d="M5.9983 24H18.0017C19.6577 24 21 22.6299 21 20.9397V10.0603C21 8.37005 19.6577 7 18.0017 7H5.9983C4.34214 7 3 8.37005 3 10.0603V20.9397C3 22.6299 4.34214 24 5.9983 24Z" fill="black"/>
    <path d="M93.3388 39.877C91.5978 37.5828 89.0308 35.6961 85.6365 34.2172C82.2423 32.7394 78.4956 32 74.3964 32C66.0749 32 59.0237 35.1795 53.2428 41.5397C52.0926 42.8052 51.2563 42.5285 51.2563 40.8172V36.687C51.2563 34.9756 49.8707 33.5888 48.1615 33.5888H37.0946C35.3853 33.5888 34 34.9756 34 36.687V90.9016C34 92.6128 35.3854 94 37.0946 94H49.4836C51.193 94 52.5782 92.6128 52.5782 90.9016V72.0472C52.5782 64.1924 53.052 58.8085 53.9995 55.8962C54.9467 52.9839 56.6993 50.6453 59.2557 48.8801C61.8124 47.1149 64.6991 46.2319 67.9172 46.2319C70.4294 46.2319 72.5784 46.8498 74.3638 48.0858C76.1491 49.3216 77.4385 51.0528 78.2318 53.2818C79.0256 55.5104 79.4221 60.4195 79.4221 68.0098V90.9015C79.4221 92.6126 80.8074 93.9998 82.5166 93.9998H94.9056C96.6148 93.9998 98 92.6126 98 90.9015V60.1988C98 54.7713 97.6583 50.6009 96.9758 47.6886C96.2932 44.7763 95.0807 42.1724 93.3388 39.877Z" fill="black"/>
</svg>
