<svg width="100" height="100" viewBox="0 0 100 100" fill="none"
    xmlns="http://www.w3.org/2000/svg">
    <path fill-rule="evenodd" clip-rule="evenodd" d="M50 3C75.9581 3 97 24.5726 97 51.1887C97 72.475 83.5486 90.5325 64.8849 96.9104C62.502 97.3851 61.656 95.8802 61.656 94.5971C61.656 93.0085 61.7124 87.8199 61.7124 81.3715C61.7124 76.8783 60.2084 73.9457 58.5211 72.4511C68.988 71.2573 79.986 67.1821 79.986 48.6735C79.986 43.4095 78.1624 39.1139 75.145 35.7393C75.6338 34.522 77.2459 29.6205 74.6844 22.9842C74.6844 22.9842 70.7458 21.6929 61.7735 27.9251C58.0182 26.8582 53.995 26.3214 50 26.3026C46.005 26.3214 41.9865 26.8582 38.2359 27.9251C29.2542 21.6929 25.3062 22.9842 25.3062 22.9842C22.7541 29.6205 24.3662 34.522 24.8503 35.7393C21.847 39.1139 20.0093 43.4095 20.0093 48.6735C20.0093 67.1351 30.9838 71.2729 41.4225 72.4902C40.0783 73.6934 38.861 75.8159 38.438 78.932C35.759 80.1634 28.9534 82.2945 24.761 74.9297C24.761 74.9297 22.2747 70.2996 17.5559 69.9612C17.5559 69.9612 12.9734 69.9003 17.2363 72.8895C17.2363 72.8895 20.3148 74.37 22.4533 79.9395C22.4533 79.9395 25.2122 88.5403 38.2876 85.6263C38.3111 89.6542 38.3534 93.4503 38.3534 94.5971C38.3534 95.8708 37.4886 97.3615 35.1433 96.915C16.4655 90.5465 3 72.4797 3 51.1887C3 24.5726 24.0466 3 50 3Z" fill="black"/>
</svg>
