<svg width="100" height="100" viewBox="0 0 100 100" fill="none"
    xmlns="http://www.w3.org/2000/svg">
    <path fill-rule="evenodd" clip-rule="evenodd" d="M22 4C12.0589 4 4 12.0589 4 22V78C4 87.9411 12.0589 96 22 96H78C87.9411 96 96 87.9411 96 78V22C96 12.0589 87.9411 4 78 4H22ZM58.6213 48.9369C60.9968 48.8036 62.6952 50.5244 62.6619 52.4784C62.6286 54.6766 60.6749 56.6527 58.5547 56.6416C56.49 56.6194 54.7251 54.8098 54.7473 52.7226C54.7695 50.6132 56.5011 48.9146 58.6213 48.9369ZM50.9509 67.5327C47.1102 67.5993 43.7245 66.8887 40.572 65.1679C40.35 65.0458 40.1502 64.8794 39.9726 64.7129C39.3731 64.1356 39.2621 63.3362 39.6506 62.7145C40.0725 62.0484 40.8495 61.7596 41.6265 62.0372C41.9839 62.1642 42.3242 62.3255 42.6677 62.4882C42.8044 62.553 42.9417 62.618 43.0807 62.6812C45.989 64.0023 49.0305 64.5796 52.1942 64.1023C53.2304 63.9501 54.2423 63.5536 55.2366 63.1639C55.4033 63.0986 55.5695 63.0335 55.7352 62.9697C56.2474 62.7696 56.7308 62.4945 57.2144 62.2193C57.4016 62.1128 57.5888 62.0063 57.7777 61.9041C58.5436 61.4822 59.3318 61.5821 59.7647 62.1594C60.1976 62.7256 60.0977 63.4693 59.4872 64.091C57.7999 65.7896 55.6908 66.6778 53.4041 67.1996C52.7952 67.3366 52.1707 67.4006 51.6307 67.4558C51.3831 67.4812 51.1533 67.5047 50.9509 67.5327ZM40.3611 56.5195C38.8625 56.4529 37.7636 55.7647 37.0753 54.4991C36.3982 53.2445 36.6757 52.001 37.4306 50.8575C38.8292 48.7481 41.6043 48.3151 43.4692 49.8694C44.5459 50.7687 44.8679 51.8678 44.4127 53.2222C43.9576 54.5767 43.0696 55.5758 41.7819 56.1753C41.487 56.319 41.156 56.3752 40.824 56.4314C40.6687 56.4577 40.5132 56.4841 40.3611 56.5195ZM23.4662 58.7621C27.7843 77.6021 55.9572 78.79 68.6672 67.9989C72.2083 65.1568 74.0621 61.0713 75.0389 56.7415C75.0521 56.6931 75.0648 56.6447 75.0774 56.5965C75.192 56.1581 75.3026 55.7349 75.7826 55.4648C82.9424 51.9566 81.455 40.0442 73.0519 39.7C71.9015 39.5296 70.8099 39.8728 69.7342 40.2111C68.5678 40.5778 67.42 40.9387 66.2362 40.6326C62.007 38.5232 57.478 37.5129 52.7603 37.7905C53.8939 35.4243 54.3835 33.6491 54.7367 32.3686C55.6148 29.1851 55.6497 29.0587 62.6397 30.5076C63.0726 30.5742 63.2391 30.774 63.3168 31.207C63.8719 34.1046 67.3685 36.0031 70.2435 34.7152C77.2035 30.9517 70.299 21.3263 64.5379 26.8106C63.1019 27.1246 61.5172 26.7713 59.9337 26.4184C58.8855 26.1847 57.8378 25.9512 56.8342 25.9114C53.1288 24.9166 51.9693 28.8462 50.8678 32.579C50.2238 34.7619 49.5995 36.8774 48.4977 37.9015C43.7356 38.179 38.8514 38.6786 34.6887 41.1988C33.5454 41.8538 32.6019 41.8205 31.4141 41.3209C25.9416 38.4011 17.8826 44.2629 19.9806 50.6799C20.2632 51.2006 20.5601 51.7142 20.8566 52.2273C22.0395 54.2739 23.2177 56.3122 23.4662 58.7621Z" fill="black"/>
    <path d="M58.91 49.0077C61.3143 48.8767 63.0332 50.4384 62.9995 52.2217C62.9658 54.2165 60.9884 56.02 58.8538 55.9998C56.7641 55.9797 54.9777 54.3374 55.0002 52.4433C55.0114 50.529 56.7641 48.9875 58.91 49.0077Z" fill="black"/>
    <path d="M39.7091 56C38.1968 55.9385 37.0879 55.303 36.3934 54.1344C35.6989 52.976 35.9901 51.8177 36.7518 50.7721C38.1632 48.8245 40.9749 48.4247 42.8455 49.8598C43.9321 50.6901 44.257 51.7152 43.7977 52.9555C43.3384 54.2061 42.4423 55.1287 41.1429 55.6822C40.706 55.8667 40.1907 55.8975 39.7091 56Z" fill="black"/>
    <path d="M50.7589 66.9974C46.8448 67.0444 43.3946 66.4523 40.1819 64.9952C39.9556 64.8918 39.752 64.7507 39.5597 64.6003C38.9488 64.1114 38.8357 63.4346 39.2316 62.9082C39.6615 62.3441 40.4534 62.0997 41.2452 62.3347C41.7543 62.4851 42.2407 62.6921 42.7271 62.8801C45.691 63.9987 48.7906 64.4781 52.0146 64.0832C53.2476 63.9328 54.4467 63.5004 55.6232 63.1244C56.3472 62.8988 57.026 62.5416 57.7047 62.222C58.4853 61.8648 59.2884 61.9399 59.7296 62.4381C60.1708 62.9176 60.069 63.5474 59.4468 64.0738C57.7273 65.5121 55.578 66.2642 53.2476 66.706C52.354 66.8846 51.415 66.9222 50.7589 66.9974Z" fill="black"/>
</svg>
