<svg width="653" height="654" viewBox="0 0 653 654" fill="none" xmlns="http://www.w3.org/2000/svg">
<g filter="url(#filter0_d_3_9233)">
<path d="M2 17C2 8.71573 8.71573 2 17 2H60.0502V105.2H17C8.71573 105.2 2 98.4845 2 90.2002V17Z" fill="#EDF2FA"/>
<rect x="60.05" y="2" width="58.0502" height="103.2" fill="#D7E3FC"/>
<rect x="118.1" y="2" width="58.0502" height="103.2" fill="#CCDBFD"/>
<rect x="176.15" y="2" width="58.0502" height="103.2" fill="#C1D3FE"/>
<path d="M234.201 2H277.251C285.535 2 292.251 8.71573 292.251 17V90.2002C292.251 98.4845 285.535 105.2 277.251 105.2H234.201V2Z" fill="#ABC4FF"/>
<path d="M2 152.45C2 144.166 8.71573 137.45 17 137.45H60.0502V240.651H17C8.71573 240.651 2 233.935 2 225.651V152.45Z" fill="#E4BABE"/>
<rect x="60.05" y="137.45" width="58.0502" height="103.2" fill="#FCF1EF"/>
<rect x="118.1" y="137.45" width="58.0502" height="103.2" fill="#E8D8C9"/>
<rect x="176.15" y="137.45" width="58.0502" height="103.2" fill="#CED3D7"/>
<path d="M234.201 137.45H277.251C285.535 137.45 292.251 144.166 292.251 152.45V225.651C292.251 233.935 285.535 240.651 277.251 240.651H234.201V137.45Z" fill="#5E606C"/>
<path d="M2 287.901C2 279.616 8.71573 272.901 17 272.901H60.0502V376.101H17C8.71573 376.101 2 369.385 2 361.101V287.901Z" fill="#CAD2C5"/>
<rect x="60.05" y="272.9" width="58.0502" height="103.2" fill="#84A98C"/>
<rect x="118.1" y="272.9" width="58.0502" height="103.2" fill="#52796F"/>
<rect x="176.15" y="272.9" width="58.0502" height="103.2" fill="#354F52"/>
<path d="M234.201 272.9H277.251C285.535 272.9 292.251 279.616 292.251 287.9V361.1C292.251 369.384 285.535 376.1 277.251 376.1H234.201V272.9Z" fill="#2F3E46"/>
<path d="M356.751 17C356.751 8.71573 363.466 2 371.751 2H414.801V105.2H371.751C363.466 105.2 356.751 98.4845 356.751 90.2002V17Z" fill="#373554"/>
<rect x="414.799" y="2" width="58.0502" height="103.2" fill="#65448E"/>
<rect x="472.851" y="2" width="58.0502" height="103.2" fill="#B157C4"/>
<rect x="530.901" y="2" width="58.0502" height="103.2" fill="#E183CE"/>
<path d="M588.95 2H632C640.284 2 647 8.71573 647 17V90.2002C647 98.4845 640.284 105.2 632 105.2H588.95V2Z" fill="#F4B8D2"/>
<path d="M2 423.351C2 415.067 8.71573 408.351 17 408.351H60.0502V511.551H17C8.71573 511.551 2 504.835 2 496.551V423.351Z" fill="white"/>
<rect x="60.05" y="408.351" width="58.0502" height="103.2" fill="#84DCC6"/>
<rect x="118.1" y="408.351" width="58.0502" height="103.2" fill="#A5FFD6"/>
<rect x="176.15" y="408.351" width="58.0502" height="103.2" fill="#FFA69E"/>
<path d="M234.201 408.351H277.251C285.535 408.351 292.251 415.067 292.251 423.351V496.551C292.251 504.835 285.535 511.551 277.251 511.551H234.201V408.351Z" fill="#FF686B"/>
<path d="M356.751 152.45C356.751 144.166 363.466 137.45 371.751 137.45H414.801V240.65H371.751C363.466 240.65 356.751 233.935 356.751 225.65V152.45Z" fill="#387643"/>
<rect x="414.799" y="137.451" width="58.0502" height="103.2" fill="#4CAF3E"/>
<rect x="472.851" y="137.451" width="58.0502" height="103.2" fill="#8CD557"/>
<rect x="530.901" y="137.451" width="58.0502" height="103.2" fill="#CDEA80"/>
<path d="M588.95 137.451H632C640.284 137.451 647 144.167 647 152.451V225.651C647 233.935 640.284 240.651 632 240.651H588.95V137.451Z" fill="#F8F7B1"/>
<path d="M356.751 287.901C356.751 279.616 363.467 272.901 371.751 272.901H414.801V376.101H371.751C363.467 376.101 356.751 369.385 356.751 361.101V287.901Z" fill="#4452B2"/>
<rect x="414.8" y="272.9" width="58.0502" height="103.2" fill="#5688CB"/>
<rect x="472.851" y="272.9" width="58.0502" height="103.2" fill="#6FBEDD"/>
<rect x="530.901" y="272.9" width="58.0502" height="103.2" fill="#8BEBE8"/>
<path d="M588.95 272.9H632C640.284 272.9 647 279.616 647 287.9V361.1C647 369.384 640.284 376.1 632 376.1H588.95V272.9Z" fill="#ABF5DD"/>
<path d="M356.751 423.351C356.751 415.067 363.466 408.351 371.751 408.351H414.801V511.551H371.751C363.466 511.551 356.751 504.835 356.751 496.551V423.351Z" fill="#284B73"/>
<rect x="414.799" y="408.351" width="58.0502" height="103.2" fill="#416A99"/>
<rect x="472.851" y="408.351" width="58.0502" height="103.2" fill="#64A2DC"/>
<rect x="530.901" y="408.351" width="58.0502" height="103.2" fill="#E1ADAF"/>
<path d="M588.95 408.351H632C640.284 408.351 647 415.067 647 423.351V496.551C647 504.835 640.284 511.551 632 511.551H588.95V408.351Z" fill="#D8D6B5"/>
<path d="M356.751 558.801C356.751 550.517 363.467 543.801 371.751 543.801H414.801V647.002H371.751C363.467 647.002 356.751 640.286 356.751 632.002V558.801Z" fill="#64B46E"/>
<rect x="414.8" y="543.801" width="58.0502" height="103.2" fill="#8BFC9A"/>
<rect x="472.851" y="543.801" width="58.0502" height="103.2" fill="#E5F28F"/>
<rect x="530.901" y="543.801" width="58.0502" height="103.2" fill="#CFB6CC"/>
<path d="M588.95 543.801H632C640.284 543.801 647 550.516 647 558.801V632.001C647 640.285 640.284 647.001 632 647.001H588.95V543.801Z" fill="#887FC0"/>
<path d="M2 558.801C2 550.517 8.71573 543.801 17 543.801H60.0502V647.002H17C8.71573 647.002 2 640.286 2 632.002V558.801Z" fill="#9B5DE5"/>
<rect x="60.05" y="543.801" width="58.0502" height="103.2" fill="#F15BB5"/>
<rect x="118.1" y="543.801" width="58.0502" height="103.2" fill="#FEE440"/>
<rect x="176.15" y="543.801" width="58.0502" height="103.2" fill="#00BBF9"/>
<path d="M234.201 543.801H277.251C285.535 543.801 292.251 550.516 292.251 558.801V632.001C292.251 640.285 285.535 647.001 277.251 647.001H234.201V543.801Z" fill="#00F5D4"/>
</g>
<defs>
<filter id="filter0_d_3_9233" x="0" y="0" width="653" height="653.002" filterUnits="userSpaceOnUse" color-interpolation-filters="sRGB">
<feFlood flood-opacity="0" result="BackgroundImageFix"/>
<feColorMatrix in="SourceAlpha" type="matrix" values="0 0 0 0 0 0 0 0 0 0 0 0 0 0 0 0 0 0 127 0" result="hardAlpha"/>
<feOffset dx="2" dy="2"/>
<feGaussianBlur stdDeviation="2"/>
<feComposite in2="hardAlpha" operator="out"/>
<feColorMatrix type="matrix" values="0 0 0 0 0 0 0 0 0 0 0 0 0 0 0 0 0 0 0.25 0"/>
<feBlend mode="normal" in2="BackgroundImageFix" result="effect1_dropShadow_3_9233"/>
<feBlend mode="normal" in="SourceGraphic" in2="effect1_dropShadow_3_9233" result="shape"/>
</filter>
</defs>
</svg>
